{"title":"Drishyam (2015) CAM RIP - 1CD - XVID - MP3","uid":12178125,"size":735555790,"categoryP":"video","categoryS":"movies","magnet":"?xt=urn:btih:b3c80988fbbf32cfa9d7591671116c2dce494adb&amp;dn=Drishyam+%282015%29+CAM+RIP+-+1CD+-+XVID+-+MP3&amp;tr=udp%3A%2F%2Ftracker.openbittorrent.com%3A80&amp;tr=udp%3A%2F%2Fopen.demonii.com%3A1337&amp;tr=udp%3A%2F%2Ftracker.coppersurfer.tk%3A6969&amp;tr=udp%3A%2F%2Fexodus.desync.com%3A6969","seeders":22,"leechers":10,"uploader":"SS132203","files":2,"time":1438359003,"description":"Drishyam (2015) CAM RIP - 1CD - XVID - MP3\n &lt;a href=&quot;\nhttp://imgsparrow.co/image/88g&quot; rel=&quot;nofollow&quot; target=&quot;_NEW&quot;&gt;\nhttp://imgsparrow.co/image/88g&lt;/a&gt;\n &lt;a href=&quot;\nhttp://imgsparrow.co/image/9b&quot; rel=&quot;nofollow&quot; target=&quot;_NEW&quot;&gt;\nhttp://imgsparrow.co/image/9b&lt;/a&gt;\n\nInfo : - \n\nSAMPLE IN TORRENT\n\nFormat : AVI\nFormat/Info : Audio Video Interleave\nFile size : 691 MiB\nDuration : 2h 28mn\nOverall bit rate : 652 Kbps\n\nVideo\nID : 0\nFormat : MPEG-4 Visual\nFormat profile : Advanced Simple@L5\nFormat settings, BVOP : 2\nFormat settings, QPel : No\nFormat settings, GMC : No warppoints\nFormat settings, Matrix : Default (H.263)\nCodec ID : XVID\nCodec ID/Hint : XviD\nDuration : 2h 28mn\nBit rate : 518 Kbps\nWidth : 640 pixels\nHeight : 272 pixels\nDisplay aspect ratio : 2.35:1\nFrame rate : 25.000 fps\nColor space : YUV\nChroma subsampling : 4:2:0\nBit depth : 8 bits\nScan type : Progressive\nCompression mode : Lossy\nBits/(Pixel*Frame) : 0.119\nStream size : 549 MiB (79%)\nWriting library : XviD 1.2.1 (UTC 2008-12-04)\n\nAudio\nID : 1\nFormat : MPEG Audio\nFormat version : Version 1\nFormat profile : Layer 3\nMode : Joint stereo\nMode extension : MS Stereo\nCodec ID : 55\nCodec ID/Hint : MP3\nDuration : 2h 28mn\nBit rate mode : Constant\nBit rate : 128 Kbps\nChannel(s) : 2 channels\nSampling rate : 48.0 KHz\nCompression mode : Lossy\nStream size : 136 MiB (20%)\nAlignment : Aligned on interleaves\nInterleave, duration : 160 ms (4.00 video frames)\nInterleave, preload duration : 216 ms\nTitle : VTS_01_1 Tc0 L2 2ch 48 112 DELAY 0ms\nWriting library : LAME3.99r\nEncoding settings : -m j -V 4 -q 2 -lowpass 17 -b 128\n\nScreens : - \n &lt;a href=&quot;\nhttp://imgsparrow.co/image/88q&quot; rel=&quot;nofollow&quot; target=&quot;_NEW&quot;&gt;\nhttp://imgsparrow.co/image/88q&lt;/a&gt; &lt;a href=&quot;\nhttp://imgsparrow.co/image/88z&quot; rel=&quot;nofollow&quot; target=&quot;_NEW&quot;&gt;\nhttp://imgsparrow.co/image/88z&lt;/a&gt; &lt;a href=&quot;\nhttp://imgsparrow.co/image/887&quot; rel=&quot;nofollow&quot; target=&quot;_NEW&quot;&gt;\nhttp://imgsparrow.co/image/887&lt;/a&gt; &lt;a href=&quot;\nhttp://imgsparrow.co/image/88k&quot; rel=&quot;nofollow&quot; target=&quot;_NEW&quot;&gt;\nhttp://imgsparrow.co/image/88k&lt;/a&gt; &lt;a href=&quot;\nhttp://imgsparrow.co/image/88n&quot; rel=&quot;nofollow&quot; target=&quot;_NEW&quot;&gt;\nhttp://imgsparrow.co/image/88n&lt;/a&gt; &lt;a href=&quot;\nhttp://imgsparrow.co/image/88y&quot; rel=&quot;nofollow&quot; target=&quot;_NEW&quot;&gt;\nhttp://imgsparrow.co/image/88y&lt;/a&gt; &lt;a href=&quot;\nhttp://imgsparrow.co/image/885&quot; rel=&quot;nofollow&quot; target=&quot;_NEW&quot;&gt;\nhttp://imgsparrow.co/image/885&lt;/a&gt; &lt;a href=&quot;\nhttp://imgsparrow.co/image/88A&quot; rel=&quot;nofollow&quot; target=&quot;_NEW&quot;&gt;\nhttp://imgsparrow.co/image/88A&lt;/a&gt; &lt;a href=&quot;\nhttp://imgsparrow.co/image/88Q&quot; rel=&quot;nofollow&quot; target=&quot;_NEW&quot;&gt;\nhttp://imgsparrow.co/image/88Q&lt;/a&gt; &lt;a href=&quot;\nhttp://imgsparrow.co/image/88Z&quot; rel=&quot;nofollow&quot; target=&quot;_NEW&quot;&gt;\nhttp://imgsparrow.co/image/88Z&lt;/a&gt;\n &lt;a href=&quot;\nhttp://imgsparrow.co/image/N2&quot; rel=&quot;nofollow&quot; target=&quot;_NEW&quot;&gt;\nhttp://imgsparrow.co/image/N2&lt;/a&gt;","torrent":{"xt":"urn:btih:b3c80988fbbf32cfa9d7591671116c2dce494adb","amp;dn":"Drishyam+%282015%29+CAM+RIP+-+1CD+-+XVID+-+MP3","amp;tr":["udp%3A%2F%2Ftracker.openbittorrent.com%3A80","udp%3A%2F%2Fopen.demonii.com%3A1337","udp%3A%2F%2Ftracker.coppersurfer.tk%3A6969","udp%3A%2F%2Fexodus.desync.com%3A6969"],"infoHash":"b3c80988fbbf32cfa9d7591671116c2dce494adb","infoHashBuffer":{"type":"Buffer","data":[179,200,9,136,251,191,50,207,169,215,89,22,113,17,108,45,206,73,74,219]},"announce":[],"urlList":[]}}